<?xml version="1.0" encoding="utf-8"?>
<!-- Generator: Adobe Illustrator 16.0.0, SVG Export Plug-In . SVG Version: 6.00 Build 0)  -->
<!DOCTYPE svg PUBLIC "-//W3C//DTD SVG 1.1//EN" "http://www.w3.org/Graphics/SVG/1.1/DTD/svg11.dtd">
<svg version="1.1" id="Layer_1" xmlns="http://www.w3.org/2000/svg" xmlns:xlink="http://www.w3.org/1999/xlink" x="0px" y="0px"
	 width="63px" height="73px" viewBox="0 0 63 73" enable-background="new 0 0 63 73" xml:space="preserve">
<g>
	<path fill="#FFFFFF" d="M31.755,25.413c0,0,12.063-0.003,14.891-0.593c0,0-2.681,8.717-15.041,8.569c0,0,2.085,8.57,17.125,5.909
		c15.04-2.658,13.105-19.798,13.105-19.798s-0.147-1.444-0.841-3.546C17.963,5.452,8.853,22.531,8.853,22.531
		C13.904,5.41,41.244,7.822,58.875,11.321C55.686,5.982,49.137,0,35.775,0C11.65,0-0.112,4.857-0.112,38.538
		C-0.112,38.538,3.76,25.413,31.755,25.413z"/>
	<path fill="#FFFFFF" d="M30.908,47.587c0,0-12.063,0.003-14.891,0.593c0,0,2.68-8.717,15.04-8.569c0,0-2.085-8.57-17.125-5.909
		C-1.107,36.359,0.827,53.499,0.827,53.499s0.147,1.444,0.841,3.546c43.031,10.503,52.142-6.576,52.142-6.576
		C48.758,67.59,21.418,65.178,3.787,61.679C6.977,67.018,13.525,73,26.887,73c24.125,0,35.888-4.857,35.888-38.538
		C62.774,34.462,58.902,47.587,30.908,47.587z"/>
	<path opacity="0.65" fill="#FFFFFF" d="M31.021,47.581c0,0-1.167,0-2.861,0.019c1.911,3.934,4.681,6.901,8.29,8.514
		c2.608,1.165,5.461,1.531,8.438,1.204c6.926-2.93,9.035-6.854,9.035-6.854c-0.58,1.967-1.466,3.664-2.586,5.144
		c3.52-1.45,7.099-3.727,10.576-6.715c0.646-4.102,0.975-8.867,0.975-14.436C62.888,34.456,59.016,47.581,31.021,47.581z"/>
</g>
</svg>
