<?xml version="1.0" encoding="utf-8"?>
<!-- Generator: Adobe Illustrator 16.0.0, SVG Export Plug-In . SVG Version: 6.00 Build 0)  -->
<!DOCTYPE svg PUBLIC "-//W3C//DTD SVG 1.1//EN" "http://www.w3.org/Graphics/SVG/1.1/DTD/svg11.dtd">
<svg version="1.1" id="Layer_1" xmlns="http://www.w3.org/2000/svg" xmlns:xlink="http://www.w3.org/1999/xlink" x="0px" y="0px"
	 width="237px" height="76px" viewBox="0 0 237 76" enable-background="new 0 0 237 76" xml:space="preserve">
<image overflow="visible" width="374" height="470" xlink:href="BB992F68.jpg"  transform="matrix(1 0 0 1 -8358 -9180)">
</image>
<path d="M90.853,52.098c-2.009,0-3.562-1.05-4.657-3.151c-1.096-2.1-1.644-5.031-1.644-8.795c0-1.68,0.154-3.26,0.466-4.739
	c0.31-1.479,0.739-2.758,1.287-3.836c0.548-1.077,1.206-1.926,1.973-2.548c0.768-0.621,1.625-0.932,2.575-0.932
	c0.913,0,1.763,0.302,2.549,0.904c0.784,0.603,1.451,1.443,2,2.521c0.548,1.078,0.977,2.356,1.287,3.836s0.466,3.078,0.466,4.794
	c0,3.617-0.548,6.513-1.644,8.686C94.415,51.011,92.861,52.098,90.853,52.098z M90.853,32.699c-0.73,0-1.297,0.694-1.698,2.083
	c-0.402,1.389-0.603,3.196-0.603,5.425c0,4.858,0.767,7.287,2.301,7.287s2.302-2.429,2.302-7.287
	C93.154,35.202,92.387,32.699,90.853,32.699z"/>
<path d="M117,42.782c0,1.461,0.18,2.612,0.717,3.452c0.535,0.841,1.037,1.26,1.592,1.26c0.297,0,0.588-0.182,0.922-0.548
	c0.332-0.364,0.71-1.022,1.153-1.973l2.516,3.891c-0.512,1.17-1.164,2-1.95,2.493s-1.715,0.74-2.781,0.74
	c-2.132-0.037-3.741-1.069-4.825-3.097c-1.085-2.027-1.628-4.922-1.628-8.685c0-3.836,0.584-6.886,1.754-9.151
	c1.169-2.265,2.758-3.397,4.768-3.397c1.862,0,3.164,1.033,4.279,3.097c1.113,2.064,1.484,5.087,1.484,9.068v1.315
	c0,0.219,0.177,0.611,0.159,0.848c-0.019,0.238,0.159-0.096,0.159,0.904H117V42.782z M119.21,32.206
	c-0.666,0-1.211,0.487-1.636,1.638c-0.426,1.15-0.676,2.156-0.749,4.156h4.548c-0.074-2-0.296-3.006-0.666-4.156
	S119.839,32.206,119.21,32.206z"/>
<path d="M135,37.303c0-3.104-0.477-4.658-1.607-4.658c-0.549,0-0.724,0.394-1.107,1.179c-0.384,0.786-0.285,1.945-0.285,3.479V52h-4
	V28h4v1.247c0-0.693,1.416-1.041,2.659-1.041c1.424,0,2.362,0.74,3.239,2.22c0.876,1.479,1.102,3.479,1.102,6V52h-4V37.303z"/>
<path fill="#8BAA3E" d="M149.153,51.604c-0.585,0.183-1.061,0.319-1.425,0.41c-0.366,0.091-0.749,0.138-1.151,0.138
	c-1.278,0-2.071-0.658-2.747-1.973c-0.676-1.315-0.83-3.179-0.83-5.59V33h-2v-5h2v-4.556l4-0.021V28h2v5h-2v9.946
	c0,1.937-0.111,3.197,0.035,3.781c0.146,0.585,0.292,0.766,0.62,0.766c0.146,0,0.311-0.493,0.676-0.493h-0.055
	c0.036,0,0.137,0.064,0.301-0.027c0.165-0.09,0.502-0.209,1.014-0.465L149.153,51.604z"/>
<path fill="#8BAA3E" d="M158.412,34.289c-1.022-1.022-1.516-1.534-1.479-1.534c-0.475,0-0.622,0.447-0.823,1.342
	c-0.201,0.896-0.109,2-0.109,3.315V52h-4V28h4v0.919c0-0.438,0.996-0.658,1.727-0.658c0.84,0,1.385,0.257,1.822,0.768
	L158.412,34.289z"/>
<path fill="#8BAA3E" d="M164,42.782c0,1.461,0.296,2.612,0.832,3.452c0.536,0.841,1.096,1.26,1.65,1.26
	c0.297,0,0.617-0.182,0.951-0.548c0.332-0.364,0.724-1.022,1.167-1.973l2.522,3.891c-0.512,1.17-1.16,2-1.946,2.493
	s-1.712,0.74-2.778,0.74c-2.133-0.037-3.741-1.069-4.825-3.097c-1.085-2.027-1.627-4.922-1.627-8.685
	c0-3.836,0.584-6.886,1.754-9.151c1.169-2.265,2.758-3.397,4.768-3.397c1.862,0,3.548,1.033,4.663,3.097
	c1.113,2.064,1.869,5.087,1.869,9.068v1.315c0,0.219-0.207,0.611-0.225,0.848C172.756,42.334,172.55,42,172.55,43H164V42.782z
	 M166.441,32.206c-0.666,0-1.211,0.487-1.636,1.638C164.38,34.994,164.13,36,164.057,38h4.548c-0.074-2-0.296-3.006-0.666-4.156
	S167.07,32.206,166.441,32.206z"/>
<path fill="#8BAA3E" d="M178,42.782c0,1.461,0.392,2.612,0.928,3.452c0.536,0.841,1.143,1.26,1.697,1.26
	c0.297,0,0.642-0.182,0.976-0.548c0.332-0.364,0.736-1.022,1.18-1.973l2.528,3.891c-0.512,1.17-1.157,2-1.943,2.493
	s-1.711,0.74-2.777,0.74c-2.132-0.037-3.74-1.069-4.824-3.097c-1.085-2.027-1.627-4.922-1.627-8.685
	c0-3.836,0.585-6.886,1.755-9.151c1.169-2.265,2.758-3.397,4.768-3.397c1.862,0,3.452,1.033,4.567,3.097
	c1.113,2.064,1.773,5.087,1.773,9.068v1.315c0,0.219-0.111,0.611-0.129,0.848c-0.02,0.238-0.13-0.096-0.13,0.904H178V42.782z
	 M180.633,32.206c-0.666,0-1.211,0.487-1.636,1.638c-0.426,1.15-0.676,2.156-0.749,4.156h4.548c-0.074-2-0.296-3.006-0.666-4.156
	S181.262,32.206,180.633,32.206z"/>
<path fill="#58595B" d="M204,37.248c0-3.069-0.23-4.604-1.417-4.604c-1.298,0-1.583,1.554-1.583,4.658V52h-4V37.357
	c0-1.754-0.39-2.959-0.719-3.616c-0.329-0.658-0.844-0.986-1.318-0.986c-0.512,0-0.981,0.365-1.365,1.096S193,35.714,193,37.248V52
	h-4V29h4v0.192c1-0.693,1.646-1.041,2.926-1.041c1.205,0,2.192,0.513,2.996,1.534c0.401-0.474,0.904-0.849,1.526-1.123
	c0.62-0.273,1.4-0.411,2.352-0.411c1.68,0,2.874,0.749,3.86,2.247s1.34,3.507,1.34,6.027V52h-4V37.248z"/>
<path fill="#58595B" d="M218,51.33c-1,0.476-1.539,0.712-2.562,0.712c-1.425,0-2.623-0.721-3.609-2.164
	c-0.986-1.442-1.476-3.442-1.476-6c0-2.63,0.521-4.639,1.563-6.027c1.041-1.388,2.385-2.082,4.028-2.082
	c0.584,0,1.261,0.146,2.028,0.438c-0.074-1.425-0.286-2.356-0.637-2.795s-0.802-0.657-1.354-0.657c-0.296,0-0.655,0.246-1.079,0.739
	c-0.425,0.493-0.895,1.105-1.411,1.836l-1.589-4.604c0.913-1.68,2.397-2.521,4.453-2.521c1.762,0,3.115,0.759,4.144,2.274
	c1.027,1.517,1.501,3.589,1.501,6.22V52h-4V51.33z M218,42.069c0-0.62-0.163-1.141-0.515-1.562c-0.353-0.419-0.67-0.63-0.967-0.63
	c-1.446,0-2.165,1.297-2.165,3.891c0,1.096,0.176,1.981,0.529,2.657c0.352,0.677,0.788,1.014,1.308,1.014
	c0.334,0,0.71-0.21,1.155-0.63S218,45.796,218,45.028V42.069z"/>
<path d="M111.1,34.864c-0.238-1.37-0.595-2.557-1.069-3.562s-1.077-1.79-1.808-2.356c-0.731-0.566-1.707-0.85-2.693-0.85
	c-0.951,0-1.529,0.329-2.529,0.986V28h-4v30.559l0,0c0,0.001,0,0.001,0,0.002c0,1.105,0.896,2,2,2c1.104,0,2-0.893,2-1.997l0,0
	v-7.015c1,0.22,0.793,0.375,1.159,0.466c0.364,0.091,0.79,0.138,1.155,0.138c1.059,0,2.002-0.32,2.77-0.959
	c0.767-0.639,1.411-1.534,1.904-2.686c0.493-1.15,0.865-2.501,1.104-4.055c0.236-1.552,0.359-3.241,0.359-5.068
	C111.451,37.741,111.336,36.234,111.1,34.864z M107.51,42.755c-0.073,0.968-0.201,1.808-0.383,2.521
	c-0.184,0.712-0.421,1.27-0.713,1.671c-0.293,0.402-0.657,0.603-1.096,0.603c-0.256,0-0.512-0.137-0.768-0.41
	c-0.256-0.274-0.475-0.611-0.657-1.014c-0.184-0.402-0.456-0.858-0.584-1.37S103,43.769,103,43.33v-6.466
	c0-0.475,0.182-0.968,0.31-1.479s0.341-0.968,0.524-1.37c0.184-0.401,0.423-0.553,0.66-0.809c0.237-0.255,0.495-0.206,0.715-0.206
	h0.055c0.877,0,1.488,0.489,1.836,1.822c0.347,1.334,0.521,2.897,0.521,4.87C107.62,40.825,107.583,41.787,107.51,42.755z"/>
<path fill="#58595B" d="M235.645,34.864c-0.238-1.37-0.595-2.557-1.069-3.562s-1.077-1.79-1.808-2.356
	c-0.731-0.566-1.479-0.85-2.466-0.85c-0.951,0-2.302,0.329-2.302,0.986V28h-4v31h-0.207c0,0-0.002-0.216-0.002-0.211
	c0,1.104,0.896,1.887,2,1.887s2.109-0.951,2.109-2.056c0-0.033,0.1-0.121,0.1-0.153v-6.918c0,0.22,0.565,0.375,0.932,0.466
	c0.364,0.091,0.676,0.138,1.041,0.138c1.06,0,1.945-0.32,2.713-0.959c0.767-0.639,1.383-1.534,1.876-2.686
	c0.493-1.15,0.852-2.501,1.09-4.055c0.236-1.552,0.353-3.241,0.353-5.068C236.004,37.741,235.881,36.234,235.645,34.864z
	 M232.055,42.755c-0.073,0.968-0.201,1.808-0.383,2.521c-0.184,0.712-0.421,1.27-0.713,1.671c-0.293,0.402-0.657,0.603-1.096,0.603
	c-0.256,0-0.512-0.137-0.768-0.41c-0.256-0.274-0.475-0.611-0.657-1.014c-0.184-0.402-0.229-0.858-0.356-1.37S228,43.769,228,43.33
	v-6.466c0-0.475-0.046-0.968,0.082-1.479s0.228-0.968,0.411-1.37c0.183-0.401,0.365-0.553,0.603-0.809
	c0.237-0.255,0.438-0.206,0.658-0.206h0.055c0.877,0,1.488,0.489,1.836,1.822c0.347,1.334,0.521,2.897,0.521,4.87
	C232.165,40.825,232.128,41.787,232.055,42.755z"/>
<g>
	
		<linearGradient id="SVGID_1_" gradientUnits="userSpaceOnUse" x1="-666.6445" y1="-793.3145" x2="-656.2096" y2="-857.6636" gradientTransform="matrix(0 -1 1 0 856.2046 -638.9023)">
		<stop  offset="0" style="stop-color:#9FBC2E"/>
		<stop  offset="1" style="stop-color:#517B38"/>
	</linearGradient>
	<path fill="url(#SVGID_1_)" d="M32.755,27.005c0,0,12.063-0.003,14.891-0.593c0,0-2.681,8.717-15.041,8.569
		c0,0,2.085,8.57,17.125,5.909c15.04-2.658,13.105-19.798,13.105-19.798s-0.147-1.444-0.841-3.546
		C18.963,7.044,9.853,24.123,9.853,24.123c5.052-17.121,32.392-14.709,50.022-11.21c-3.189-5.339-9.738-11.321-23.1-11.321
		C12.65,1.592,0.888,6.449,0.888,40.13C0.888,40.13,4.76,27.005,32.755,27.005z"/>
	
		<linearGradient id="SVGID_2_" gradientUnits="userSpaceOnUse" x1="-1104.3857" y1="637.5625" x2="-1093.9507" y2="573.2129" gradientTransform="matrix(0 1 -1 0 639.334 1152.8281)">
		<stop  offset="0" style="stop-color:#9FBC2E"/>
		<stop  offset="1" style="stop-color:#517B38"/>
	</linearGradient>
	<path fill="url(#SVGID_2_)" d="M31.908,49.179c0,0-12.063,0.003-14.891,0.593c0,0,2.68-8.717,15.04-8.569
		c0,0-2.085-8.57-17.125-5.909C-0.107,37.951,1.827,55.091,1.827,55.091s0.147,1.444,0.841,3.546
		C45.699,69.14,54.81,52.061,54.81,52.061C49.758,69.182,22.418,66.77,4.787,63.271c3.189,5.339,9.738,11.321,23.1,11.321
		c24.125,0,35.888-4.857,35.888-38.538C63.774,36.054,59.902,49.179,31.908,49.179z"/>
	
		<radialGradient id="SVGID_3_" cx="-414.0967" cy="-263.627" r="39.1766" gradientTransform="matrix(-0.3613 0.7959 -0.6318 -0.2823 -259.1294 269.7272)" gradientUnits="userSpaceOnUse">
		<stop  offset="0" style="stop-color:#FFFFFF;stop-opacity:0.75"/>
		<stop  offset="1" style="stop-color:#FFFFFF;stop-opacity:0"/>
	</radialGradient>
	<path opacity="0.65" fill="url(#SVGID_3_)" d="M32.021,49.173c0,0-1.167,0-2.861,0.019c1.911,3.934,4.681,6.901,8.29,8.514
		c2.608,1.165,5.461,1.531,8.438,1.204c6.926-2.93,9.035-6.854,9.035-6.854c-0.58,1.967-1.466,3.664-2.586,5.144
		c3.52-1.45,7.099-3.727,10.576-6.715c0.646-4.102,0.975-8.867,0.975-14.436C63.888,36.048,60.016,49.173,32.021,49.173z"/>
</g>
</svg>
